<?xml version="1.0" standalone="no"?>
<!DOCTYPE svg PUBLIC "-//W3C//DTD SVG 20010904//EN"
    "http://www.w3.org/TR/2001/REC-SVG-20010904/DTD/svg10.dtd">
<svg version="1.0" xmlns="http://www.w3.org/2000/svg"
    width="225.000000pt" height="225.000000pt" viewBox="0 0 225.000000 225.000000"
    preserveAspectRatio="xMidYMid meet">

    <g transform="translate(0.000000,225.000000) scale(0.100000,-0.100000)"
        fill="#E7E7E7" stroke="none">
        <path d="M1502 1645 c-71 -20 -100 -36 -145 -82 -128 -127 -155 -345 -64 -516
36 -69 81 -111 157 -146 49 -23 67 -26 165 -26 126 0 172 15 245 81 93 84 124
172 118 333 -3 88 -8 116 -30 162 -59 128 -163 196 -308 204 -58 4 -102 0
-138 -10z m195 -146 c85 -32 127 -121 121 -258 -3 -77 -7 -94 -33 -136 -41
-65 -90 -90 -175 -89 -127 1 -195 72 -207 214 -10 120 30 220 104 259 43 23
143 28 190 10z"/>
        <path d="M265 1618 c-2 -7 -3 -240 -2 -518 l2 -505 80 0 80 0 5 385 5 385 32
-45 c18 -25 137 -198 265 -385 l233 -340 83 -3 82 -3 0 521 0 520 -80 0 -80 0
0 -374 c0 -206 -4 -377 -9 -380 -5 -3 -125 165 -267 374 l-259 379 -83 1 c-58
0 -84 -4 -87 -12z"/>
        <path d="M1272 721 c-9 -5 -12 -26 -10 -67 l3 -59 348 -3 348 -2 -3 67 -3 68
-335 2 c-184 2 -341 -1 -348 -6z"/>
    </g>
</svg>
